<svg xmlns="http://www.w3.org/2000/svg" width="12" height="14" fill="none" class="_wauiIcon__apple _9u4c"><path fill-rule="evenodd" clip-rule="evenodd" d="M8.973 0a3.133 3.133 0 01-.716 2.244 2.635 2.635 0 01-2.081.984 2.98 2.98 0 01.735-2.161A3.187 3.187 0 018.973 0zm1.455 5.916a3.181 3.181 0 00-.415 1.53 3.074 3.074 0 001.877 2.827 7.05 7.05 0 01-.976 1.989c-.575.86-1.178 1.7-2.135 1.716-.455.01-.762-.12-1.082-.257-.334-.142-.682-.29-1.227-.29-.577 0-.94.152-1.291.3-.303.127-.596.25-1.01.268-.911.034-1.608-.918-2.203-1.77-1.191-1.74-2.119-4.904-.876-7.057A3.417 3.417 0 013.966 3.42c.517-.011 1.013.188 1.448.363.332.133.629.253.872.253.214 0 .502-.115.838-.248.53-.21 1.178-.468 1.838-.398a3.256 3.256 0 012.566 1.387 3.181 3.181 0 00-1.1 1.14z" fill="currentColor"/></svg>